<svg width="29" height="29" viewBox="0 0 29 29" fill="none" xmlns="http://www.w3.org/2000/svg">
<path fill-rule="evenodd" clip-rule="evenodd" d="M14.5 28.5C22.232 28.5 28.5 22.232 28.5 14.5C28.5 6.76801 22.232 0.5 14.5 0.5C6.76801 0.5 0.5 6.76801 0.5 14.5C0.5 22.232 6.76801 28.5 14.5 28.5ZM18.1719 13.8376C18.2411 13.8673 18.3093 13.8983 18.3765 13.9305C19.326 14.386 20.0203 15.0756 20.3845 15.9247C20.8922 17.1088 20.9385 19.0376 19.3983 20.5763C18.2211 21.7525 16.7921 22.2833 14.7647 22.2974H14.7556C12.4752 22.2816 10.7217 21.5142 9.54362 20.0167C8.49533 18.6841 7.95459 16.8298 7.93642 14.5055L7.93636 14.5L7.93642 14.4945C7.95459 12.1702 8.49533 10.3159 9.54362 8.9833C10.7217 7.48576 12.4752 6.71843 14.7556 6.70263H14.7647C17.0497 6.71848 18.8231 7.48291 20.0357 8.97475C20.634 9.71077 21.0736 10.5982 21.353 11.6281L20.0415 11.9781C19.811 11.1413 19.4614 10.4237 18.9976 9.85309C18.0517 8.68945 16.6262 8.09246 14.7601 8.07858C12.9075 8.09235 11.5064 8.68649 10.5954 9.84454C9.74238 10.9289 9.30153 12.4952 9.28508 14.5C9.30153 16.5047 9.74238 18.071 10.5954 19.1554C11.5064 20.3135 12.9075 20.9076 14.7602 20.9214C16.4303 20.9091 17.5354 20.5118 18.4548 19.5933C19.5041 18.5449 19.4845 17.2589 19.1489 16.4763C18.9515 16.0159 18.5941 15.633 18.1119 15.3419C17.9945 16.2173 17.7285 16.912 17.3079 17.448C16.7541 18.154 15.9603 18.54 14.9485 18.5955C14.1823 18.6373 13.4451 18.4525 12.8727 18.0747C12.1956 17.6277 11.7994 16.9435 11.757 16.1482C11.6735 14.5802 12.9173 13.4519 14.8521 13.3404C15.5389 13.301 16.1813 13.3321 16.7754 13.433C16.6965 12.9507 16.5373 12.5685 16.2991 12.2919C15.9719 11.912 15.4663 11.7172 14.7962 11.7129L14.7776 11.7128C14.2397 11.7128 13.5092 11.8634 13.0437 12.5696L11.9246 11.8018C12.5476 10.8564 13.5599 10.3369 14.7771 10.3369L14.8047 10.3369C16.8397 10.3499 18.0516 11.6197 18.1719 13.8376ZM13.1037 16.0734C13.1471 16.8887 14.0281 17.2693 14.8761 17.2215C15.7063 17.176 16.6486 16.8502 16.8093 14.8438C16.3786 14.7497 15.9048 14.7005 15.3984 14.7005C15.2444 14.7005 15.0878 14.705 14.9281 14.7142C13.5339 14.7945 13.0715 15.469 13.1037 16.0734Z" fill="white"/>
</svg>
