<?xml version="1.0" encoding="UTF-8"?>
<svg width="28px" height="28px" viewBox="0 0 28 28" version="1.1" xmlns="http://www.w3.org/2000/svg" xmlns:xlink="http://www.w3.org/1999/xlink">
    <!-- Generator: Sketch 64 (93537) - https://sketch.com -->
    <title>icon/circle/instagram</title>
    <desc>Created with Sketch.</desc>
    <g id="Symbols" stroke="none" stroke-width="1" fill="none" fill-rule="evenodd">
        <g id="social-icons" transform="translate(-12.000000, 0.000000)" fill="#FFFFFF">
            <g id="icon/circle/instagram" transform="translate(12.000000, 0.000000)">
                <path d="M14,28 C21.7319865,28 28,21.7319865 28,14 C28,6.2680135 21.7319865,0 14,0 C6.2680135,0 0,6.2680135 0,14 C0,21.7319865 6.2680135,28 14,28 Z M13.9978056,7 C12.0973056,7 11.859,7.00805556 11.1126111,7.04211111 C10.3677778,7.07608333 9.85908333,7.19438889 9.41397222,7.36738889 C8.95380556,7.54619444 8.56355556,7.78547222 8.1745,8.1745 C7.78547222,8.56355556 7.54619444,8.95380556 7.36738889,9.41397222 C7.19438889,9.85908333 7.07608333,10.3677778 7.04211111,11.1126111 C7.00805556,11.859 7,12.0973056 7,13.9978056 C7,15.8982778 7.00805556,16.1365833 7.04211111,16.8829722 C7.07608333,17.6278056 7.19438889,18.1365 7.36738889,18.5816111 C7.54619444,19.0417778 7.78547222,19.4320278 8.1745,19.8210833 C8.56355556,20.2101111 8.95380556,20.4493889 9.41397222,20.6282222 C9.85908333,20.8011944 10.3677778,20.9195 11.1126111,20.9534722 C11.859,20.9875278 12.0973056,20.9955833 13.9978056,20.9955833 C15.8982778,20.9955833 16.1365833,20.9875278 16.8829722,20.9534722 C17.6278056,20.9195 18.1365,20.8011944 18.5816111,20.6282222 C19.0417778,20.4493889 19.4320278,20.2101111 19.8210833,19.8210833 C20.2101111,19.4320278 20.4493889,19.0417778 20.6282222,18.5816111 C20.8011944,18.1365 20.9195,17.6278056 20.9534722,16.8829722 C20.9875278,16.1365833 20.9955833,15.8982778 20.9955833,13.9978056 C20.9955833,12.0973056 20.9875278,11.859 20.9534722,11.1126111 C20.9195,10.3677778 20.8011944,9.85908333 20.6282222,9.41397222 C20.4493889,8.95380556 20.2101111,8.56355556 19.8210833,8.1745 C19.4320278,7.78547222 19.0417778,7.54619444 18.5816111,7.36738889 C18.1365,7.19438889 17.6278056,7.07608333 16.8829722,7.04211111 C16.1365833,7.00805556 15.8982778,7 13.9978056,7 Z M13.9978056,8.26086111 C15.8662778,8.26086111 16.0876111,8.268 16.8255,8.30166667 C17.5077778,8.33277778 17.8783056,8.44677778 18.1248889,8.54261111 C18.4515278,8.66955556 18.6846389,8.82119444 18.9295,9.06608333 C19.1743889,9.31094444 19.3260278,9.54405556 19.4529722,9.87069444 C19.5488056,10.1172778 19.6628056,10.4878056 19.6939167,11.1700833 C19.7275833,11.9079722 19.7347222,12.1293056 19.7347222,13.9978056 C19.7347222,15.8662778 19.7275833,16.0876111 19.6939167,16.8255 C19.6628056,17.5077778 19.5488056,17.8783056 19.4529722,18.1248889 C19.3260278,18.4515278 19.1743889,18.6846389 18.9295,18.9295 C18.6846389,19.1743889 18.4515278,19.3260278 18.1248889,19.4529722 C17.8783056,19.5488056 17.5077778,19.6628056 16.8255,19.6939167 C16.0877222,19.7275833 15.8664167,19.7347222 13.9978056,19.7347222 C12.1291667,19.7347222 11.9078889,19.7275833 11.1700833,19.6939167 C10.4878056,19.6628056 10.1172778,19.5488056 9.87069444,19.4529722 C9.54405556,19.3260278 9.31094444,19.1743889 9.06608333,18.9295 C8.82122222,18.6846389 8.66955556,18.4515278 8.54261111,18.1248889 C8.44677778,17.8783056 8.33277778,17.5077778 8.30166667,16.8255 C8.268,16.0876111 8.26086111,15.8662778 8.26086111,13.9978056 C8.26086111,12.1293056 8.268,11.9079722 8.30166667,11.1700833 C8.33277778,10.4878056 8.44677778,10.1172778 8.54261111,9.87069444 C8.66955556,9.54405556 8.82119444,9.31094444 9.06608333,9.06608333 C9.31094444,8.82119444 9.54405556,8.66955556 9.87069444,8.54261111 C10.1172778,8.44677778 10.4878056,8.33277778 11.1700833,8.30166667 C11.9079722,8.268 12.1293056,8.26086111 13.9978056,8.26086111 L13.9978056,8.26086111 Z M13.9978056,16.3303889 C12.7095278,16.3303889 11.6651944,15.2860556 11.6651944,13.9978056 C11.6651944,12.7095278 12.7095278,11.6651944 13.9978056,11.6651944 C15.2860556,11.6651944 16.3303889,12.7095278 16.3303889,13.9978056 C16.3303889,15.2860556 15.2860556,16.3303889 13.9978056,16.3303889 Z M13.9978056,10.4043333 C12.0131667,10.4043333 10.4043333,12.0131667 10.4043333,13.9978056 C10.4043333,15.9824167 12.0131667,17.59125 13.9978056,17.59125 C15.9824167,17.59125 17.59125,15.9824167 17.59125,13.9978056 C17.59125,12.0131667 15.9824167,10.4043333 13.9978056,10.4043333 L13.9978056,10.4043333 Z M18.5729722,10.2623611 C18.5729722,10.7261389 18.197,11.1020833 17.7332222,11.1020833 C17.2694722,11.1020833 16.8935,10.7261389 16.8935,10.2623611 C16.8935,9.79858333 17.2694722,9.42261111 17.7332222,9.42261111 C18.197,9.42261111 18.5729722,9.79858333 18.5729722,10.2623611" id="Combined-Shape"></path>
            </g>
        </g>
    </g>
</svg>