<svg width="29" height="29" viewBox="0 0 29 29" fill="none" xmlns="http://www.w3.org/2000/svg">
<path fill-rule="evenodd" clip-rule="evenodd" d="M14.5 28.5C22.232 28.5 28.5 22.232 28.5 14.5C28.5 6.76801 22.232 0.5 14.5 0.5C6.76801 0.5 0.5 6.76801 0.5 14.5C0.5 22.232 6.76801 28.5 14.5 28.5ZM6.71033 13.1892V10.55C6.71033 10.4518 6.72016 10.3929 6.88764 10.3929H9.14246C9.53639 10.3929 9.75301 10.7266 9.9106 11.3544L10.0386 11.8548H10.4226C10.4914 10.4323 10.5505 9.81425 10.5505 9.81425C10.5505 9.81425 9.58553 9.92214 9.01441 9.92214H6.1295L4.58333 9.87306V10.2851L5.10531 10.3832C5.46964 10.4519 5.55809 10.5303 5.58787 10.864C5.58787 10.864 5.61747 11.845 5.61747 13.4638C5.61747 15.0824 5.58787 16.0538 5.58787 16.0538C5.58787 16.348 5.46964 16.4559 5.10531 16.5248L4.58333 16.623V17.0348L6.1295 16.9858H8.70934C9.29029 16.9858 10.6393 17.0348 10.6393 17.0348C10.6687 16.6815 10.8658 15.0824 10.8953 14.9061H10.531L10.1469 15.7792C9.84163 16.4658 9.39862 16.5149 8.90619 16.5149H7.43893C6.94655 16.5149 6.71022 16.3187 6.71022 15.8969V13.66C6.71022 13.66 7.78348 13.66 8.15758 13.6895C8.43334 13.7092 8.60065 13.7877 8.68939 14.1702L8.80762 14.6804H9.23079L9.20137 13.3951L9.26039 12.1002H8.8371L8.69933 12.6691C8.61059 13.0419 8.55163 13.1108 8.16753 13.1499C7.73763 13.1987 6.72563 13.1894 6.71033 13.1892ZM11.7911 12.2178C12.2736 11.9038 12.4115 11.433 12.5494 10.8247L12.973 10.8344V12.3257L14.509 12.2668L14.4304 12.9341L12.9729 12.8261V15.4847C12.9729 16.2301 13.2093 16.5245 13.6424 16.5245C14.0364 16.5245 14.3513 16.2793 14.4498 16.1125L14.6566 16.3774C14.4498 16.8876 13.8492 17.1329 13.2682 17.1329C12.52 17.1329 11.9586 16.7208 11.9586 15.8769V12.8652H11.0823V12.4924C11.2003 12.4825 11.4958 12.4139 11.7911 12.2178ZM15.2869 15.4671L15.661 15.4573L15.9372 16.1635C16.0453 16.4481 16.3211 16.7325 16.8724 16.7325C17.4729 16.7325 17.7388 16.4284 17.7388 15.9969C17.7388 15.4395 17.2221 15.2107 16.666 14.9644C16.0181 14.6775 15.3167 14.3669 15.3167 13.4853C15.3167 12.5434 16.0944 12.1215 17.0596 12.1215C17.4729 12.1215 18.1327 12.2001 18.4478 12.3375C18.4026 12.6152 18.3805 12.9447 18.3593 13.26C18.3529 13.3567 18.3465 13.4521 18.3395 13.5442L17.9751 13.5638L17.7289 12.828C17.6698 12.6415 17.3745 12.5139 17.02 12.5139C16.567 12.5139 16.1535 12.6906 16.1535 13.1516C16.1535 13.6513 16.6574 13.8759 17.211 14.1228C17.886 14.4238 18.6349 14.7577 18.6349 15.663C18.6349 16.6245 17.8175 17.115 16.7935 17.115C16.0353 17.115 15.2869 16.8405 15.2869 16.8405C15.3067 16.7229 15.3165 16.4776 15.3165 16.2127C15.3165 15.9577 15.3065 15.6829 15.2869 15.4671ZM21.3162 17.2591C20.8065 18.2971 20.2284 18.5882 19.699 18.5882C19.4335 18.5882 19.3058 18.4706 19.2664 18.2849L19.1189 17.5208L18.7061 17.5404C18.6936 17.612 18.6811 17.6849 18.6684 17.7585C18.6017 18.1476 18.5316 18.5559 18.4408 18.9017C18.6866 19.0875 19.0992 19.1857 19.4237 19.1857C20.102 19.1857 21.1339 19.0974 22.0773 16.8648L23.6599 13.1437C23.7878 12.84 23.8367 12.8107 24.2102 12.6637L24.4167 12.5855V12.2427L23.4829 12.2917L22.4804 12.2427V12.5855L22.7358 12.6637C22.9912 12.7422 23.1094 12.84 23.1094 13.0163C23.1094 13.1044 23.0798 13.1926 23.0305 13.3296C22.9054 13.6456 22.2279 15.2878 21.8758 16.0647C21.4477 14.9889 20.8714 13.426 20.7798 13.1437C20.7602 13.0849 20.7503 13.036 20.7503 12.9868C20.7503 12.8302 20.8584 12.7028 21.0944 12.6539L21.4187 12.5856V12.2428L20.0721 12.2918L19.0008 12.2428V12.5856L19.1777 12.6443C19.4234 12.7226 19.4824 12.7912 19.6299 13.1339C20.3428 14.7606 20.7257 15.7434 21.1586 16.8549C21.2102 16.9873 21.2625 17.1217 21.3162 17.2591Z" fill="white"/>
</svg>
