<?xml version="1.0" encoding="UTF-8"?><svg id="Layer_2" xmlns="http://www.w3.org/2000/svg" width="117.51" height="117.51" viewBox="0 0 117.51 117.51"><defs><style>.cls-1{fill:#231f20;}.cls-2{fill:none;stroke:#231f20;stroke-miterlimit:10;stroke-width:5.51px;}</style></defs><g id="Layer_1-2"><circle class="cls-2" cx="58.75" cy="58.75" r="56"/><path class="cls-1" d="M71.2,70.7v4.8h-8.12v5.64h22.47v-5.64h-8.12v-6.73h8.49v3.37h4.76v-11.05h-4.76v2.85h-3.8c-2.86,3.34-6.57,5.67-10.91,6.77Z"/><path class="cls-1" d="M87.67,52.52c-.44,1.87-1.02,3.63-1.74,5.27h9.73v4.76h5.78v-10.03h-13.77Z"/><path class="cls-1" d="M73.53,56.21c.86-1.04,1.56-2.28,2.11-3.69h-12.57v5.71h8.12v.05c.86-.55,1.64-1.24,2.33-2.07Z"/><path class="cls-1" d="M85.63,43.92c0-14-11.04-24.16-26.25-24.16-8.68,0-16.55,3.28-22.16,9.22-5.7,6.05-8.56,14.2-8.04,22.95.09,1.54,1.41,2.72,2.96,2.63,1.54-.09,2.72-1.42,2.63-2.96-.43-7.19,1.89-13.86,6.53-18.78,4.54-4.81,10.96-7.47,18.09-7.47,5.72,0,10.95,1.8,14.71,5.06,3.89,3.38,5.95,8.04,5.95,13.5,0,11.67-5.64,18.91-14.71,18.91-4.93,0-8.95-4.44-8.95-9.89,0-1.55.33-3.93,1.94-6.29,1.3-1.59,2.82-2.98,4.63-4.09.21-.13.4-.28.56-.45.9-.87,1.14-2.26.49-3.4-.76-1.34-2.47-1.82-3.81-1.05-2.57,1.46-4.67,3.32-6.23,5.47-4.71,5.81-6.82,13.47-8.74,20.45-3.16,11.48-5.53,18.51-14.11,18.51-2.25,0-6.18-.61-7.14-4.73-.35-1.5-1.86-2.44-3.36-2.09-1.5.35-2.44,1.86-2.09,3.36,1.31,5.58,6.13,9.05,12.59,9.05,6.05,0,10.58-2.46,13.83-7.53,2.67-4.16,4.13-9.47,5.68-15.09.5-1.83,1.01-3.68,1.57-5.5,2.34,5.23,7.35,8.86,13.14,8.86,12.33,0,20.3-9.62,20.3-24.51Z"/></g></svg>